<svg width="175" height="247" viewBox="0 0 175 247" fill="none" xmlns="http://www.w3.org/2000/svg">
<path fill-rule="evenodd" clip-rule="evenodd" d="M0 246.076H174.313V35.5824L138.836 0H0V246.076Z" fill="url(#paint0_linear_1_2859)"/>
<path fill-rule="evenodd" clip-rule="evenodd" d="M138.887 35.5293L156.553 17.78L174.313 35.5293V71.1167L138.887 35.5293Z" fill="black" fill-opacity="0.1"/>
<path fill-rule="evenodd" clip-rule="evenodd" d="M174.311 35.5583H138.885V0L174.311 35.5583Z" fill="#0080CD"/>
<g clip-path="url(#clip0_1_2859)">
<path d="M137.998 71.109C137.998 68.2981 136.01 64.8498 133.581 63.4446L91.4147 39.054C88.9857 37.6487 85.0104 37.6487 82.5814 39.054L40.4147 63.4446C37.9854 64.8496 35.998 68.2987 35.998 71.109V119.891C35.998 122.701 37.9858 126.15 40.4146 127.555L82.5812 151.946C85.0102 153.351 88.9856 153.351 91.4146 151.946L133.581 127.555C134.796 126.852 135.9 125.639 136.7 124.25C137.501 122.861 137.998 121.296 137.998 119.891V71.109Z" fill="#0080CD"/>
<path d="M91.4139 151.946L133.581 127.555C134.795 126.852 135.899 125.639 136.7 124.25L86.9973 95.5L37.2949 124.25C38.0953 125.639 39.1996 126.853 40.4139 127.555L82.5806 151.946C85.0096 153.351 88.9849 153.351 91.4139 151.946Z" fill="#00549E"/>
<path d="M86.998 129.564C68.2504 129.564 52.998 114.283 52.998 95.5C52.998 76.7169 68.2504 61.4358 86.998 61.4358C99.0954 61.4358 110.378 67.9581 116.442 78.4572L101.727 86.9879C98.6924 81.7327 93.048 78.4679 86.998 78.4679C77.624 78.4679 69.998 86.1083 69.998 95.5C69.998 104.891 77.624 112.532 86.998 112.532C93.0487 112.532 98.693 109.267 101.728 104.011L116.443 112.541C110.379 123.042 99.096 129.564 86.998 129.564Z" fill="white"/>
<path d="M120.997 93.6075H117.219V89.8228H113.442V93.6075H109.664V97.3923H113.442V101.177H117.219V97.3923H120.997V93.6075Z" fill="white"/>
<path d="M135.165 93.6075H131.387V89.8228H127.61V93.6075H123.832V97.3923H127.61V101.177H131.387V97.3923H135.165V93.6075Z" fill="white"/>
</g>
<defs>
<linearGradient id="paint0_linear_1_2859" x1="14.0703" y1="87.9391" x2="196.984" y2="202.009" gradientUnits="userSpaceOnUse">
<stop stop-color="#0080CD" stop-opacity="0.46"/>
<stop offset="1" stop-color="#470A3F" stop-opacity="0.6"/>
</linearGradient>
<clipPath id="clip0_1_2859">
<rect width="102" height="115" fill="white" transform="translate(35.998 38)"/>
</clipPath>
</defs>
</svg>
