<svg width="382" height="67" viewBox="0 0 382 67" fill="none" xmlns="http://www.w3.org/2000/svg">
<path d="M0.000312567 65.37H7.76031V37.37H0.000312567V65.37ZM12.4463 65.37H20.0463V58.61C20.0463 53.61 22.2463 51.37 26.2463 51.37H26.8863V43.37C23.2463 43.21 21.2863 45.17 20.0463 48.09V43.73H12.4463V65.37ZM40.205 65.89C47.125 65.89 52.205 60.77 52.205 54.57V54.49C52.205 48.33 47.205 43.25 40.285 43.25C33.365 43.25 28.325 48.37 28.325 54.57V54.65C28.325 60.85 33.325 65.89 40.205 65.89ZM40.285 59.45C37.605 59.45 35.685 57.21 35.685 54.57V54.49C35.685 51.81 37.445 49.65 40.205 49.65C42.925 49.65 44.845 51.89 44.845 54.57V54.65C44.845 57.25 43.045 59.45 40.285 59.45ZM55.415 65.37H63.015V53.65C63.015 51.25 64.335 49.97 66.215 49.97C68.095 49.97 69.295 51.25 69.295 53.65V65.37H76.855V51.21C76.855 46.25 74.135 43.25 69.495 43.25C66.415 43.25 64.415 44.97 63.015 46.77V43.73H55.415V65.37ZM81.2066 65.37H88.9666V57.37H92.8466C99.7666 57.37 104.847 53.89 104.847 47.25V47.17C104.847 40.97 100.287 37.37 93.2466 37.37H81.2066V65.37ZM88.9666 51.29V43.89H92.6466C95.4066 43.89 97.1266 45.13 97.1266 47.53V47.61C97.1266 49.85 95.4066 51.29 92.6866 51.29H88.9666ZM108.121 65.37H118.801C128.841 65.37 134.721 59.41 134.721 51.29V51.21C134.721 43.09 128.921 37.37 118.961 37.37H108.121V65.37ZM119.041 44.21C123.721 44.21 126.801 46.81 126.801 51.33V51.41C126.801 55.93 123.721 58.49 119.041 58.49H115.881V44.21H119.041ZM138.746 65.37H146.506V55.37H159.746V48.93H146.506V44.17H161.146V37.37H138.746V65.37ZM177.634 65.37H185.234V49.81H190.074V43.97H185.074V43.45C185.074 42.09 185.794 41.41 187.234 41.41C188.354 41.41 189.154 41.57 190.074 41.85V36.49C188.914 36.13 187.434 35.89 185.154 35.89C182.554 35.89 180.794 36.45 179.474 37.77C178.234 39.01 177.634 40.85 177.634 43.37V43.81H175.114V49.81H177.634V65.37ZM203.096 65.89C210.016 65.89 215.096 60.77 215.096 54.57V54.49C215.096 48.33 210.096 43.25 203.176 43.25C196.256 43.25 191.216 48.37 191.216 54.57V54.65C191.216 60.85 196.216 65.89 203.096 65.89ZM203.176 59.45C200.496 59.45 198.576 57.21 198.576 54.57V54.49C198.576 51.81 200.336 49.65 203.096 49.65C205.816 49.65 207.736 51.89 207.736 54.57V54.65C207.736 57.25 205.936 59.45 203.176 59.45ZM218.306 65.37H225.906V58.61C225.906 53.61 228.106 51.37 232.106 51.37H232.746V43.37C229.106 43.21 227.146 45.17 225.906 48.09V43.73H218.306V65.37ZM261.367 65.93C267.527 65.93 271.047 63.25 273.727 59.61L267.887 55.45C266.167 57.49 264.487 58.85 261.567 58.85C257.647 58.85 254.887 55.57 254.887 51.37V51.29C254.887 47.21 257.647 43.85 261.567 43.85C264.287 43.85 266.087 45.17 267.687 47.13L273.527 42.61C271.087 39.21 267.327 36.81 261.647 36.81C253.167 36.81 246.927 43.21 246.927 51.37V51.45C246.927 59.81 253.367 65.93 261.367 65.93ZM283.945 61.61H290.905V54.65H297.945V47.93H290.905V40.97H283.945V47.93H276.905V54.65H283.945V61.61ZM309.531 61.61H316.491V54.65H323.531V47.93H316.491V40.97H309.531V47.93H302.491V54.65H309.531V61.61Z" fill="white"/>
<path d="M352.398 0.232124L381.476 29.3103C381.63 30.6057 381.708 31.9239 381.708 33.2605C381.708 51.6298 366.817 66.521 348.448 66.521C330.079 66.521 315.187 51.6298 315.188 33.2605C315.188 14.8912 330.079 -1.12233e-06 348.448 0C349.785 4.1803e-08 351.103 0.0788403 352.398 0.232124Z" fill="#63C1A0"/>
<path d="M328.073 28.4377C329.791 28.8979 330.973 28.4137 331.992 27.5989L330.674 26.0026C330.042 26.4429 329.472 26.6966 328.658 26.4785C327.565 26.1856 327.041 25.0648 327.354 23.8937L327.36 23.8714C327.665 22.7337 328.686 22.003 329.779 22.2959C330.537 22.4991 330.941 23.0017 331.24 23.6677L333.206 22.8437C332.78 21.7134 331.911 20.7632 330.327 20.3389C327.963 19.7053 325.744 21.0236 325.135 23.2989L325.129 23.3212C324.504 25.6523 325.843 27.84 328.073 28.4377ZM336.181 30.6101C338.59 31.2557 340.884 29.9218 341.485 27.6799L341.491 27.6576C342.089 25.4269 340.788 23.1419 338.379 22.4963C335.97 21.8508 333.676 23.1847 333.075 25.4266L333.069 25.4489C332.471 27.6796 333.772 29.9646 336.181 30.6101ZM336.726 28.6643C335.533 28.3445 334.985 27.1336 335.284 26.0183L335.29 25.996C335.591 24.8695 336.64 24.1225 337.834 24.4422C339.027 24.762 339.57 25.9476 339.265 27.0852L339.259 27.1075C338.958 28.234 337.909 28.981 336.726 28.6643ZM341.555 31.8827L343.674 32.4505L344.872 27.978L346.042 31.5548L346.087 31.5668L348.902 29.0457L347.7 33.5294L349.853 34.1062L351.945 26.2987L349.659 25.6861L346.986 28.2096L345.933 24.6879L343.647 24.0752L341.555 31.8827ZM351.294 34.4922L353.458 35.072L355.55 27.2645L353.386 26.6847L351.294 34.4922ZM354.887 35.455L357.028 36.0288L358.176 31.7458L360.374 36.9254L362.259 37.4304L364.351 29.623L362.21 29.0492L361.104 33.176L358.998 28.1884L356.979 27.6475L354.887 35.455ZM367.584 39.0246C369.023 39.4101 370.276 39.1959 371.301 38.7174L372.239 35.2151L368.659 34.2558L368.234 35.8396L369.762 36.249L369.508 37.1971C369.139 37.3253 368.708 37.3293 368.172 37.1858C366.934 36.8541 366.295 35.7146 366.636 34.4431L366.642 34.4208C366.962 33.2273 368.094 32.5265 369.209 32.8254C370.001 33.0376 370.457 33.4346 370.897 34.0666L372.581 32.8681C371.936 31.9301 371.098 31.2634 369.715 30.8928C367.306 30.2473 365.043 31.5537 364.434 33.829L364.428 33.8513C363.791 36.227 365.141 38.3701 367.584 39.0246ZM330.662 42.5659C332.558 43.074 334.072 42.4636 334.5 40.8687L334.506 40.8464C334.897 39.3853 333.937 38.5064 332.257 37.6379C331.227 37.1108 331.007 36.8606 331.1 36.5148L331.106 36.4925C331.186 36.1914 331.497 36.0593 332.021 36.1998C332.723 36.3881 333.427 36.8397 334.001 37.5552L335.492 36.317C334.827 35.4095 333.896 34.7777 332.558 34.419C330.684 33.917 329.257 34.6464 328.866 36.1075L328.86 36.1298C328.429 37.7359 329.601 38.5399 331.15 39.3614C332.149 39.916 332.363 40.1409 332.274 40.4755L332.268 40.4978C332.175 40.8436 331.812 40.9495 331.221 40.7911C330.329 40.552 329.565 40.0126 328.94 39.1758L327.35 40.2919C328.101 41.4137 329.267 42.1923 330.662 42.5659ZM338.802 44.7709C341.211 45.4164 343.505 44.0826 344.105 41.8407L344.111 41.8184C344.709 39.5877 343.409 37.3027 341 36.6571C338.59 36.0116 336.296 37.3455 335.696 39.5873L335.69 39.6096C335.092 41.8403 336.392 44.1254 338.802 44.7709ZM339.347 42.825C338.154 42.5052 337.605 41.2944 337.904 40.1791L337.91 40.1568C338.212 39.0302 339.261 38.2832 340.454 38.603C341.648 38.9228 342.191 40.1083 341.886 41.246L341.88 41.2683C341.578 42.3948 340.529 43.1418 339.347 42.825ZM348.071 47.2546C350.48 47.9001 352.774 46.5662 353.375 44.3244L353.381 44.3021C353.978 42.0714 352.678 39.7863 350.269 39.1408C347.86 38.4953 345.566 39.8291 344.965 42.071L344.959 42.0933C344.361 44.324 345.662 46.6091 348.071 47.2546ZM348.616 45.3087C347.423 44.9889 346.874 43.7781 347.173 42.6627L347.179 42.6404C347.481 41.5139 348.53 40.7669 349.723 41.0867C350.917 41.4065 351.46 42.592 351.155 43.7297L351.149 43.752C350.847 44.8785 349.798 45.6255 348.616 45.3087ZM353.445 48.5271L355.586 49.1009L356.734 44.818L358.932 49.9975L360.817 50.5026L362.909 42.6951L360.768 42.1213L359.662 46.2481L357.555 41.2606L355.537 40.7197L353.445 48.5271Z" fill="white"/>
</svg>
